<?xml version="1.0" encoding="UTF-8"?>
<svg width="12px" height="7px" viewBox="0 0 12 7" version="1.1" xmlns="http://www.w3.org/2000/svg" xmlns:xlink="http://www.w3.org/1999/xlink">
    <!-- Generator: Sketch 50 (54983) - http://www.bohemiancoding.com/sketch -->
    <title>Shape Copy</title>
    <desc>Created with Sketch.</desc>
    <defs></defs>
    <g id="Page-1" stroke="none" stroke-width="1" fill="none" fill-rule="evenodd">
        <g id="02.3.Thong.Ke.Bao.Cao-Bao.Cao.Cong_No.TLCNDT" transform="translate(-538.000000, -306.000000)" fill="#2569D4" fill-rule="nonzero">
            <g id="Group-3" transform="translate(354.000000, 291.000000)">
                <path d="M195.880096,15.72159 L195.278936,15.1203141 C195.198832,15.0400205 195.106556,15 195.002236,15 C194.898168,15 194.805934,15.0400205 194.72583,15.1203141 L190.000063,19.8470677 L185.274507,15.1204405 C185.194361,15.0401468 185.102127,15.0001264 184.997933,15.0001264 C184.893696,15.0001264 184.801463,15.0401468 184.721359,15.1204405 L184.120283,15.7217585 C184.04001,15.8018837 184,15.8941414 184,15.9984052 C184,16.1025848 184.040136,16.1948425 184.120283,16.2749677 L189.723489,21.8797701 C189.803593,21.9599374 189.895869,22 190.000063,22 C190.104258,22 190.196365,21.9599374 190.276427,21.8797701 L195.880096,16.2749677 C195.960201,16.1948003 196,16.1025427 196,15.9984052 C196,15.8941414 195.960201,15.8018837 195.880096,15.72159 Z" id="Shape-Copy"></path>
            </g>
        </g>
    </g>
</svg>