<svg xmlns="http://www.w3.org/2000/svg" width="17" height="14" viewBox="0 0 17 14">
    <path fill="#969DB0" fill-rule="nonzero" d="M17 10.454c0-.98-.298-1.926-.862-2.737a4.938 4.938 0 0 0-1.532-1.427 3.61 3.61 0 0 0 1.158-2.645c0-2.01-1.66-3.645-3.699-3.645-1.209 0-2.342.59-3.03 1.557a3.765 3.765 0 0 0-1.07 0A3.727 3.727 0 0 0 4.935 0c-2.04 0-3.699 1.635-3.699 3.645 0 1.04.446 1.98 1.158 2.645A4.937 4.937 0 0 0 .862 7.717 4.775 4.775 0 0 0 0 10.454v2.028h3.565V14h9.87v-1.518H17v-2.028zM12.065.9c1.536 0 2.786 1.231 2.786 2.745s-1.25 2.745-2.786 2.745l-.082-.001.006-.017c.047-.133.087-.27.119-.41l.007-.029.022-.113.01-.054a3.612 3.612 0 0 0 .042-.358l.005-.074a3.62 3.62 0 0 0 .004-.16v-.01-.007a3.66 3.66 0 0 0-.004-.162l-.002-.047a3.723 3.723 0 0 0-.011-.136l-.003-.03a3.632 3.632 0 0 0-2.195-2.959A2.812 2.812 0 0 1 12.065.9zM7.536 2.587l.027-.01a2.939 2.939 0 0 1 .28-.082 2.82 2.82 0 0 1 1.595.083l.025.01a2.764 2.764 0 0 1 1.789 2.147l.003.024c.005.034.01.068.013.102l.004.037c.004.031.006.062.008.094l.002.04.003.12v.016c0 .04 0 .078-.002.117l-.002.036a2.72 2.72 0 0 1-.009.112l-.005.043a2.838 2.838 0 0 1-.01.071l-.007.056a2.67 2.67 0 0 1-.07.31l-.013.043-.02.062a2.59 2.59 0 0 1-.017.049l-.02.055a2.73 2.73 0 0 1-.037.093l-.018.04-.035.077-.004.009-.013.027a2.602 2.602 0 0 1-.042.08l-.017.031-.001.002a2.75 2.75 0 0 1-.05.084l-.02.033c-.018.03-.036.058-.056.086l-.037.053-.031.044a2.799 2.799 0 0 1-.12.15l-.03.033c-.016.019-.032.038-.05.056l-.03.031a2.828 2.828 0 0 1-.084.084l-.052.049-.036.032a2.746 2.746 0 0 1-.168.136l-.02.015a2.798 2.798 0 0 1-1.66.541c-.62 0-1.194-.201-1.658-.541l-.02-.015a2.725 2.725 0 0 1-.168-.136l-.036-.032-.052-.049a2.793 2.793 0 0 1-.084-.084l-.03-.031c-.018-.018-.034-.037-.05-.056l-.03-.034a2.88 2.88 0 0 1-.12-.149l-.032-.044-.036-.052a2.73 2.73 0 0 1-.057-.087l-.02-.033a2.733 2.733 0 0 1-.05-.085c-.005-.01-.01-.021-.017-.032a2.777 2.777 0 0 1-.042-.08l-.014-.03-.002-.004a2.682 2.682 0 0 1-.037-.08l-.016-.038a2.756 2.756 0 0 1-.038-.095L5.87 6.07a2.654 2.654 0 0 1-.018-.053l-.02-.059a2.634 2.634 0 0 1-.025-.088l-.016-.062a2.583 2.583 0 0 1-.011-.05l-.014-.06A2.648 2.648 0 0 1 5.75 5.6l-.008-.052a2.678 2.678 0 0 1-.01-.077l-.004-.038a2.704 2.704 0 0 1-.01-.403l.002-.036.007-.098.004-.034c.004-.036.008-.07.014-.106 0-.007.002-.013.003-.02a2.764 2.764 0 0 1 1.788-2.15zM2.15 3.645C2.149 2.13 3.399.9 4.935.9c.801 0 1.558.343 2.082.923a3.632 3.632 0 0 0-2.195 2.96l-.003.026a3.6 3.6 0 0 0-.01.141l-.003.044a3.667 3.667 0 0 0 0 .341l.004.069a3.747 3.747 0 0 0 .043.36l.01.058.022.11.008.036c.031.135.07.267.116.396l.008.025a2.81 2.81 0 0 1-.082.001c-1.536 0-2.786-1.231-2.786-2.745zM4.33 9.38l-.03.047-.061.1-.033.056a4.772 4.772 0 0 0-.21.409 4.744 4.744 0 0 0-.076.177l-.016.035a4.73 4.73 0 0 0-.06.16l-.013.037a4.851 4.851 0 0 0-.042.124l-.017.058a4.717 4.717 0 0 0-.112.442l-.013.063a4.805 4.805 0 0 0-.02.114l-.009.054a4.753 4.753 0 0 0-.022.17v.001a4.858 4.858 0 0 0-.016.155H.913v-1.128c0-1.54.899-2.924 2.307-3.581a3.718 3.718 0 0 0 2.251.378c.028.039.056.078.085.115l.03.038c.03.036.058.072.089.108l.037.042c.029.032.057.064.087.095l.047.049.081.08.031.03-.118.073-.019.012a4.956 4.956 0 0 0-.256.176l-.031.023a5.015 5.015 0 0 0-.126.097l-.027.022a4.785 4.785 0 0 0-.23.198l-.026.023a4.834 4.834 0 0 0-.114.11l-.03.028a5.03 5.03 0 0 0-.084.088l-.034.036a4.811 4.811 0 0 0-.093.103l-.015.016-.102.123-.028.035-.075.096-.028.037a5.03 5.03 0 0 0-.191.276zm.147 3.72V11.972c0-.05.001-.099.003-.149l.003-.048.005-.1.006-.06.008-.086.009-.064.01-.082.012-.065.013-.08.014-.065.016-.077.017-.066.018-.074.02-.067.02-.072.022-.067.024-.07c.007-.023.016-.044.024-.066l.026-.07.027-.065.028-.067.03-.065.03-.066.031-.064.033-.064.034-.063.035-.063.037-.062.037-.061.039-.06.039-.06a3.8 3.8 0 0 1 .041-.06l.041-.058.044-.058.043-.057.046-.056a4.1 4.1 0 0 1 .14-.164l.05-.053a3.866 3.866 0 0 1 .788-.646 3.892 3.892 0 0 1 .392-.216l.052-.025a3.718 3.718 0 0 0 1.715.417c.619 0 1.202-.151 1.715-.417l.052.025a4.523 4.523 0 0 1 .453.256 3.82 3.82 0 0 1 .467.354 4.2 4.2 0 0 1 .405.414l.045.055.046.056.043.057c.015.02.03.038.043.058l.042.058.04.06.04.06.039.06.037.061.037.062.035.063.034.063.032.064.032.064.03.066.03.065.028.067.027.066.026.068.024.066.024.071.021.067.021.072.02.067.018.074.017.066.016.077.014.066.013.078.011.066.011.082.009.063.008.088.005.06c.003.032.004.066.006.099l.003.048.003.15V13.1H4.478zm8.94-1.518a4.809 4.809 0 0 0-.037-.326l-.009-.052a4.59 4.59 0 0 0-.02-.117l-.012-.061a4.64 4.64 0 0 0-.113-.444l-.017-.057a4.819 4.819 0 0 0-.042-.126l-.012-.035a4.758 4.758 0 0 0-.061-.16l-.014-.034a4.773 4.773 0 0 0-.052-.124l-.025-.054a4.672 4.672 0 0 0-.048-.101l-.029-.059a4.835 4.835 0 0 0-.134-.249c-.01-.019-.022-.037-.033-.056a4.695 4.695 0 0 0-.061-.1l-.03-.047a4.887 4.887 0 0 0-.19-.276l-.029-.037a5.033 5.033 0 0 0-.075-.097l-.028-.034a4.865 4.865 0 0 0-.103-.123l-.014-.015a4.887 4.887 0 0 0-.212-.228l-.029-.029a4.952 4.952 0 0 0-.115-.11l-.024-.022a5.06 5.06 0 0 0-.096-.085l-.037-.032a4.925 4.925 0 0 0-.098-.081l-.027-.022a4.904 4.904 0 0 0-.126-.097l-.032-.023a4.934 4.934 0 0 0-.255-.175l-.02-.013a5.032 5.032 0 0 0-.117-.072l.03-.03a3.575 3.575 0 0 0 .216-.225l.037-.042.09-.109.028-.036c.03-.038.058-.077.086-.116a3.748 3.748 0 0 0 2.251-.378c1.408.657 2.307 2.04 2.307 3.581v1.128h-2.668z"/>
</svg>
